<svg id="svg" version="1.1" xmlns="http://www.w3.org/2000/svg" xmlns:xlink="http://www.w3.org/1999/xlink" width="400" height="398.1630309988519" viewBox="0, 0, 400,398.1630309988519"><g id="svgg"><path id="path0" d="M191.036 46.049 C 190.378 46.138,187.869 46.403,185.458 46.638 C 108.300 54.155,45.418 122.993,45.418 199.941 C 45.418 264.100,84.750 320.400,147.410 345.933 C 156.963 349.826,174.578 353.974,175.908 352.644 C 176.011 352.541,176.096 323.266,176.096 287.589 L 176.096 222.721 164.044 222.615 L 151.992 222.510 151.992 201.394 L 151.992 180.279 164.044 180.173 L 176.096 180.068 176.096 176.081 C 176.096 113.467,215.173 81.939,277.793 94.028 C 279.932 94.441,281.859 94.888,282.076 95.022 C 282.642 95.372,282.570 98.615,281.691 112.339 C 281.262 119.029,280.710 127.818,280.464 131.871 C 280.218 135.924,279.940 139.317,279.846 139.411 C 279.671 139.586,277.104 139.106,272.510 138.041 C 268.431 137.095,259.803 136.844,255.754 137.554 C 241.654 140.026,235.295 150.748,234.395 173.567 L 234.138 180.072 252.826 180.175 L 271.514 180.279 271.514 201.394 L 271.514 222.510 253.187 222.709 L 234.861 222.908 234.760 286.952 C 234.679 338.064,234.760 350.993,235.158 350.982 C 248.995 350.597,280.176 334.460,301.793 316.496 C 326.580 295.899,347.325 260.009,352.192 229.302 C 364.895 149.158,321.633 77.369,245.817 52.781 C 229.837 47.598,203.516 44.364,191.036 46.049 " stroke="none" fill="#fbfbfb" fill-rule="evenodd"></path><path id="path1" d="M53.107 0.586 C 48.547 1.294,43.825 2.445,43.825 2.848 C 43.825 3.035,43.690 3.159,43.526 3.124 C 43.362 3.089,42.958 3.165,42.629 3.292 C 42.301 3.420,41.046 3.834,39.841 4.213 C 36.068 5.398,27.923 10.012,25.288 12.455 C 24.641 13.055,23.931 13.546,23.710 13.546 C 23.305 13.546,23.015 13.812,18.414 18.414 C 13.812 23.015,13.546 23.305,13.546 23.710 C 13.546 23.931,13.054 24.642,12.453 25.290 C 11.302 26.531,10.098 28.411,9.704 29.582 C 9.574 29.965,9.325 30.279,9.149 30.279 C 8.664 30.279,5.464 36.514,4.447 39.442 C 3.952 40.867,3.294 42.496,2.984 43.064 C 2.674 43.631,1.921 46.410,1.310 49.239 L 0.199 54.382 0.199 199.004 L 0.199 343.625 1.051 348.008 C 1.520 350.418,2.133 352.928,2.412 353.586 C 2.692 354.243,2.952 354.871,2.989 354.980 C 3.026 355.090,3.162 355.448,3.291 355.777 C 3.420 356.106,3.740 357.092,4.002 357.968 C 5.070 361.537,9.773 370.056,12.251 372.909 C 12.963 373.729,13.546 374.559,13.546 374.754 C 13.546 374.949,14.084 375.553,14.741 376.096 C 15.398 376.639,15.936 377.246,15.936 377.445 C 15.936 377.988,20.444 382.452,21.002 382.462 C 21.268 382.466,21.671 382.817,21.898 383.241 C 22.125 383.664,23.073 384.551,24.004 385.211 C 28.272 388.236,32.427 390.891,33.766 391.451 C 34.572 391.787,35.327 392.215,35.444 392.401 C 35.561 392.587,37.262 393.305,39.222 393.996 C 41.183 394.687,42.976 395.403,43.206 395.587 C 43.784 396.048,50.552 397.536,54.183 398.000 C 58.422 398.542,341.546 398.541,345.688 397.999 C 349.351 397.519,356.192 396.023,356.794 395.569 C 357.024 395.395,358.817 394.687,360.778 393.996 C 362.738 393.305,364.439 392.587,364.556 392.401 C 364.673 392.215,365.428 391.787,366.234 391.451 C 367.573 390.891,371.728 388.236,375.996 385.211 C 376.927 384.551,377.875 383.664,378.102 383.241 C 378.329 382.817,378.732 382.466,378.998 382.462 C 379.568 382.452,384.064 377.982,384.064 377.424 C 384.064 377.214,384.602 376.645,385.259 376.159 C 385.916 375.673,386.454 375.078,386.454 374.837 C 386.454 374.596,387.037 373.737,387.749 372.927 C 390.051 370.310,394.315 362.704,395.633 358.864 C 396.103 357.495,396.718 355.926,397.000 355.378 C 397.811 353.802,398.729 349.605,399.397 344.422 C 399.944 340.173,400.000 323.761,399.899 196.813 L 399.785 53.984 398.681 49.038 C 398.074 46.317,397.324 43.628,397.015 43.062 C 396.705 42.495,396.049 40.867,395.556 39.442 C 394.620 36.739,391.836 31.166,391.077 30.478 C 390.835 30.259,390.203 29.273,389.672 28.287 C 389.141 27.301,388.200 25.967,387.581 25.323 C 386.961 24.679,386.454 23.962,386.454 23.729 C 386.454 23.306,386.197 23.025,381.586 18.414 C 376.970 13.798,376.694 13.546,376.261 13.546 C 376.024 13.546,375.307 13.013,374.668 12.362 C 374.029 11.710,373.372 11.173,373.208 11.166 C 373.044 11.160,372.058 10.557,371.017 9.825 C 368.251 7.883,362.682 5.003,360.159 4.211 C 358.954 3.833,357.699 3.437,357.371 3.330 C 357.042 3.223,356.703 3.163,356.618 3.196 C 356.533 3.228,356.354 3.085,356.220 2.877 C 355.888 2.361,351.607 1.328,346.801 0.603 C 341.320 -0.223,58.426 -0.239,53.107 0.586 M217.928 46.206 C 257.972 51.249,299.257 74.334,321.337 104.030 C 321.763 104.603,323.109 106.395,324.329 108.014 C 345.696 136.365,356.561 172.724,354.609 209.340 C 353.327 233.388,349.321 248.366,338.245 270.518 C 335.847 275.313,335.053 276.733,331.114 283.267 C 326.022 291.714,312.060 308.790,307.628 311.992 C 307.204 312.299,305.089 314.077,302.930 315.943 C 298.916 319.413,292.296 324.553,289.442 326.417 C 288.566 326.989,286.863 328.139,285.657 328.973 C 284.452 329.806,282.480 331.099,281.275 331.846 C 280.070 332.593,277.649 334.096,275.896 335.186 C 267.688 340.291,253.152 347.007,245.618 349.176 C 243.990 349.644,235.488 351.394,234.840 351.394 C 234.742 351.394,234.661 322.351,234.661 286.853 L 234.661 222.311 252.988 222.311 L 271.315 222.311 271.315 201.394 L 271.315 180.478 252.776 180.478 C 237.293 180.478,234.203 180.387,234.025 179.923 C 233.288 178.001,235.161 159.104,236.486 155.097 C 241.629 139.545,252.969 134.178,272.944 137.843 C 276.509 138.497,279.524 138.936,279.642 138.817 C 279.761 138.699,280.079 133.636,280.349 127.568 C 280.619 121.499,281.118 112.812,281.456 108.262 C 281.795 103.713,282.072 98.939,282.072 97.654 L 282.072 95.318 275.598 94.086 C 215.586 82.666,178.949 112.083,176.630 173.549 L 176.369 180.467 164.380 180.572 L 152.390 180.677 152.287 201.494 L 152.184 222.311 164.339 222.311 L 176.494 222.311 176.494 287.649 L 176.494 352.988 174.332 352.988 C 169.292 352.988,157.949 350.475,151.435 347.916 C 92.621 324.806,55.693 280.340,46.625 221.713 C 41.594 189.190,49.357 150.458,66.295 123.567 C 77.912 105.125,89.181 92.174,103.827 80.438 C 108.320 76.837,109.390 76.043,114.705 72.362 C 127.152 63.743,145.787 54.947,159.163 51.378 C 160.916 50.910,163.111 50.277,164.041 49.971 C 166.506 49.159,180.141 46.686,184.716 46.220 C 186.877 46.001,189.363 45.749,190.239 45.661 C 193.235 45.359,214.535 45.779,217.928 46.206 " stroke="none" fill="#345494" fill-rule="evenodd"></path><path id="path2" d="M192.335 45.700 C 192.831 45.795,193.548 45.792,193.929 45.692 C 194.310 45.592,193.904 45.514,193.028 45.519 C 192.151 45.523,191.840 45.605,192.335 45.700 M207.869 45.699 C 208.362 45.794,209.168 45.794,209.661 45.699 C 210.154 45.605,209.751 45.527,208.765 45.527 C 207.779 45.527,207.375 45.605,207.869 45.699 M302.390 84.188 C 302.390 84.257,302.973 84.840,303.685 85.483 L 304.980 86.653 303.810 85.359 C 302.719 84.152,302.390 83.881,302.390 84.188 M96.196 86.952 L 94.622 88.645 96.315 87.071 C 97.246 86.204,98.008 85.442,98.008 85.377 C 98.008 85.076,97.661 85.378,96.196 86.952 M309.163 90.637 C 310.354 91.843,311.417 92.829,311.527 92.829 C 311.636 92.829,310.752 91.843,309.562 90.637 C 308.372 89.432,307.308 88.446,307.199 88.446 C 307.089 88.446,307.973 89.432,309.163 90.637 M245.922 91.919 C 246.527 92.011,247.424 92.008,247.914 91.914 C 248.404 91.819,247.908 91.744,246.813 91.747 C 245.717 91.750,245.316 91.828,245.922 91.919 M257.077 91.919 C 257.683 92.011,258.579 92.008,259.069 91.914 C 259.559 91.819,259.064 91.744,257.968 91.747 C 256.873 91.750,256.472 91.828,257.077 91.919 M282.195 97.410 C 282.197 98.725,282.272 99.215,282.360 98.499 C 282.449 97.783,282.447 96.707,282.356 96.108 C 282.265 95.510,282.193 96.096,282.195 97.410 M314.741 96.614 C 315.484 97.380,316.182 98.008,316.292 98.008 C 316.401 98.008,315.883 97.380,315.139 96.614 C 314.396 95.847,313.698 95.219,313.589 95.219 C 313.479 95.219,313.998 95.847,314.741 96.614 M86.034 97.112 L 84.661 98.606 86.155 97.233 C 87.546 95.955,87.833 95.618,87.528 95.618 C 87.462 95.618,86.789 96.290,86.034 97.112 M281.793 104.382 C 281.793 105.588,281.867 106.081,281.959 105.478 C 282.050 104.875,282.050 103.889,281.959 103.287 C 281.867 102.684,281.793 103.177,281.793 104.382 M281.389 109.761 C 281.392 110.857,281.469 111.257,281.561 110.652 C 281.652 110.046,281.650 109.150,281.555 108.660 C 281.461 108.170,281.386 108.665,281.389 109.761 M280.985 115.139 C 280.985 116.125,281.063 116.529,281.158 116.036 C 281.253 115.543,281.253 114.736,281.158 114.243 C 281.063 113.750,280.985 114.153,280.985 115.139 M280.579 121.315 C 280.583 122.191,280.665 122.503,280.760 122.007 C 280.855 121.512,280.852 120.795,280.752 120.414 C 280.652 120.033,280.574 120.438,280.579 121.315 M280.180 130.478 C 280.185 131.355,280.266 131.666,280.361 131.171 C 280.457 130.675,280.453 129.958,280.353 129.577 C 280.254 129.196,280.176 129.602,280.180 130.478 M259.877 136.949 C 261.365 137.026,263.696 137.025,265.056 136.948 C 266.417 136.870,265.199 136.807,262.351 136.808 C 259.502 136.809,258.389 136.872,259.877 136.949 M176.586 170.120 C 176.586 170.886,176.668 171.200,176.769 170.817 C 176.869 170.433,176.869 169.806,176.769 169.422 C 176.668 169.039,176.586 169.353,176.586 170.120 M233.992 177.689 C 233.992 179.114,234.064 179.696,234.153 178.984 C 234.241 178.272,234.241 177.107,234.153 176.394 C 234.064 175.682,233.992 176.265,233.992 177.689 M354.682 194.622 C 354.687 195.498,354.768 195.810,354.863 195.314 C 354.959 194.818,354.955 194.101,354.855 193.720 C 354.756 193.340,354.678 193.745,354.682 194.622 M45.134 195.418 C 45.137 196.514,45.214 196.915,45.306 196.309 C 45.397 195.704,45.395 194.807,45.300 194.317 C 45.206 193.827,45.131 194.323,45.134 195.418 M354.712 202.988 C 354.714 204.522,354.786 205.101,354.872 204.274 C 354.959 203.447,354.957 202.192,354.869 201.485 C 354.781 200.778,354.711 201.454,354.712 202.988 M45.139 204.781 C 45.139 205.986,45.214 206.479,45.305 205.876 C 45.397 205.274,45.397 204.288,45.305 203.685 C 45.214 203.083,45.139 203.576,45.139 204.781 M61.952 270.120 C 62.292 270.777,62.660 271.315,62.769 271.315 C 62.879 271.315,62.691 270.777,62.351 270.120 C 62.011 269.462,61.643 268.924,61.533 268.924 C 61.424 268.924,61.612 269.462,61.952 270.120 M316.313 302.689 L 314.940 304.183 316.434 302.810 C 317.256 302.055,317.928 301.383,317.928 301.316 C 317.928 301.012,317.591 301.299,316.313 302.689 M309.949 309.462 L 307.371 312.151 310.060 309.573 C 311.539 308.155,312.749 306.945,312.749 306.884 C 312.749 306.591,312.343 306.964,309.949 309.462 M96.614 315.139 C 97.469 316.016,98.259 316.733,98.369 316.733 C 98.478 316.733,97.868 316.016,97.012 315.139 C 96.156 314.263,95.366 313.546,95.257 313.546 C 95.147 313.546,95.758 314.263,96.614 315.139 " stroke="none" fill="#7d93bd" fill-rule="evenodd"></path><path id="path3" d="M198.090 45.713 C 199.560 45.790,202.070 45.790,203.668 45.714 C 205.266 45.639,204.064 45.576,200.996 45.576 C 197.928 45.575,196.621 45.637,198.090 45.713 M189.542 46.098 C 190.035 46.193,190.842 46.193,191.335 46.098 C 191.828 46.003,191.424 45.925,190.438 45.925 C 189.452 45.925,189.049 46.003,189.542 46.098 M210.657 46.098 C 211.150 46.193,211.957 46.193,212.450 46.098 C 212.943 46.003,212.540 45.925,211.554 45.925 C 210.568 45.925,210.164 46.003,210.657 46.098 M185.359 46.490 C 185.742 46.590,186.370 46.590,186.753 46.490 C 187.136 46.390,186.823 46.308,186.056 46.308 C 185.289 46.308,184.975 46.390,185.359 46.490 M308.964 90.837 C 311.147 93.028,313.023 94.821,313.132 94.821 C 313.242 94.821,311.546 93.028,309.363 90.837 C 307.180 88.645,305.304 86.853,305.194 86.853 C 305.085 86.853,306.781 88.645,308.964 90.837 M90.825 92.331 L 88.247 95.020 90.936 92.442 C 92.415 91.024,93.625 89.814,93.625 89.753 C 93.625 89.459,93.220 89.833,90.825 92.331 M249.520 91.532 C 251.228 91.606,253.918 91.606,255.496 91.531 C 257.075 91.455,255.677 91.394,252.390 91.394 C 249.104 91.395,247.812 91.457,249.520 91.532 M242.535 91.915 C 243.030 92.011,243.747 92.007,244.128 91.907 C 244.509 91.807,244.104 91.730,243.227 91.734 C 242.351 91.738,242.039 91.820,242.535 91.915 M260.857 91.915 C 261.350 92.010,262.156 92.010,262.649 91.915 C 263.142 91.820,262.739 91.742,261.753 91.742 C 260.767 91.742,260.364 91.820,260.857 91.915 M85.035 98.506 L 83.865 99.801 85.159 98.631 C 86.366 97.540,86.637 97.211,86.330 97.211 C 86.261 97.211,85.678 97.794,85.035 98.506 M282.172 101.394 C 282.177 102.271,282.258 102.583,282.353 102.087 C 282.449 101.591,282.445 100.874,282.345 100.493 C 282.246 100.112,282.168 100.518,282.172 101.394 M281.766 107.968 C 281.766 108.735,281.848 109.049,281.948 108.665 C 282.048 108.282,282.048 107.654,281.948 107.271 C 281.848 106.887,281.766 107.201,281.766 107.968 M196.190 113.645 L 195.020 114.940 196.315 113.770 C 197.027 113.126,197.610 112.544,197.610 112.475 C 197.610 112.167,197.281 112.438,196.190 113.645 M281.375 113.745 C 281.380 114.622,281.461 114.933,281.557 114.438 C 281.652 113.942,281.648 113.225,281.549 112.844 C 281.449 112.463,281.371 112.869,281.375 113.745 M280.990 119.323 C 280.993 120.418,281.071 120.819,281.162 120.214 C 281.254 119.608,281.252 118.712,281.157 118.222 C 281.062 117.732,280.987 118.227,280.990 119.323 M280.612 126.295 C 280.612 127.938,280.682 128.611,280.768 127.789 C 280.854 126.967,280.854 125.623,280.768 124.801 C 280.682 123.979,280.612 124.651,280.612 126.295 M280.180 134.064 C 280.185 134.940,280.266 135.252,280.361 134.756 C 280.457 134.261,280.453 133.544,280.353 133.163 C 280.254 132.782,280.176 133.187,280.180 134.064 M278.187 139.318 C 278.571 139.419,279.198 139.419,279.582 139.318 C 279.965 139.218,279.651 139.136,278.884 139.136 C 278.118 139.136,277.804 139.218,278.187 139.318 M176.245 174.701 C 176.246 177.112,176.311 178.046,176.390 176.778 C 176.470 175.510,176.469 173.538,176.389 172.396 C 176.309 171.253,176.244 172.291,176.245 174.701 M152.058 180.345 C 151.690 180.714,151.723 222.220,152.092 222.449 C 152.256 222.550,152.343 213.151,152.284 201.562 L 152.177 180.490 164.037 180.378 L 175.896 180.267 164.110 180.173 C 157.628 180.122,152.205 180.199,152.058 180.345 M252.785 180.376 L 271.308 180.486 271.416 201.498 L 271.525 222.510 271.519 201.394 L 271.514 180.279 252.888 180.273 L 234.263 180.267 252.785 180.376 M45.909 185.657 C 45.909 186.424,45.991 186.738,46.091 186.355 C 46.192 185.971,46.192 185.344,46.091 184.960 C 45.991 184.577,45.909 184.890,45.909 185.657 M354.276 210.359 C 354.276 211.125,354.358 211.439,354.458 211.056 C 354.558 210.672,354.558 210.045,354.458 209.661 C 354.358 209.278,354.276 209.592,354.276 210.359 M353.877 215.538 C 353.877 216.305,353.959 216.619,354.059 216.235 C 354.160 215.852,354.160 215.224,354.059 214.841 C 353.959 214.457,353.877 214.771,353.877 215.538 M353.479 219.522 C 353.479 220.289,353.561 220.603,353.661 220.219 C 353.761 219.836,353.761 219.208,353.661 218.825 C 353.561 218.441,353.479 218.755,353.479 219.522 M310.153 308.865 L 305.777 313.347 310.259 308.971 C 314.422 304.907,314.922 304.382,314.635 304.382 C 314.576 304.382,312.559 306.399,310.153 308.865 M90.438 308.964 C 92.511 311.046,94.297 312.749,94.407 312.749 C 94.516 312.749,92.910 311.046,90.837 308.964 C 88.764 306.882,86.978 305.179,86.868 305.179 C 86.759 305.179,88.365 306.882,90.438 308.964 M96.813 314.866 C 96.813 314.934,97.395 315.517,98.108 316.161 L 99.402 317.331 98.232 316.036 C 97.141 314.829,96.813 314.558,96.813 314.866 M173.212 352.871 C 173.707 352.967,174.425 352.963,174.805 352.863 C 175.186 352.764,174.781 352.686,173.904 352.690 C 173.028 352.695,172.716 352.776,173.212 352.871 " stroke="none" fill="#9caccc" fill-rule="evenodd"></path><path id="path4" d="M354.705 198.207 C 354.707 199.522,354.782 200.012,354.870 199.296 C 354.959 198.580,354.957 197.504,354.866 196.905 C 354.775 196.307,354.703 196.892,354.705 198.207 M45.128 198.805 C 45.128 199.791,45.206 200.194,45.301 199.701 C 45.396 199.208,45.396 198.401,45.301 197.908 C 45.206 197.415,45.128 197.819,45.128 198.805 M158.267 222.609 C 161.499 222.676,166.788 222.676,170.020 222.609 C 173.252 222.542,170.608 222.487,164.143 222.487 C 157.679 222.487,155.035 222.542,158.267 222.609 M244.151 222.609 C 249.260 222.672,257.507 222.672,262.478 222.609 C 267.448 222.546,263.267 222.494,253.187 222.494 C 243.108 222.494,239.041 222.546,244.151 222.609 M176.290 287.849 C 176.290 323.566,176.337 338.118,176.394 320.188 C 176.452 302.257,176.452 273.034,176.394 255.247 C 176.337 237.461,176.290 252.131,176.290 287.849 " stroke="none" fill="#94accc" fill-rule="evenodd"></path></g></svg>