<svg id="svg" version="1.1" xmlns="http://www.w3.org/2000/svg" xmlns:xlink="http://www.w3.org/1999/xlink" width="400" height="398.1630309988519" viewBox="0, 0, 400,398.1630309988519"><g id="svgg"><path id="path0" d="M183.297 37.076 C 155.518 40.361,132.965 48.483,111.155 63.057 C 42.177 109.152,18.608 199.380,56.183 273.506 C 59.847 280.735,60.723 282.263,64.863 288.645 C 75.905 305.669,90.357 320.685,107.424 332.869 C 111.787 335.983,113.030 336.791,118.327 339.960 C 167.904 369.615,232.096 369.615,281.673 339.960 C 286.970 336.791,288.213 335.983,292.576 332.869 C 386.070 266.127,384.143 126.741,288.845 63.057 C 258.089 42.504,218.925 32.864,183.297 37.076 M291.339 120.801 C 295.387 123.044,296.077 128.076,293.868 139.243 C 291.917 149.107,290.199 157.237,289.480 160.018 C 289.148 161.301,288.334 164.950,287.670 168.127 C 287.006 171.305,285.739 177.311,284.853 181.474 C 282.528 192.404,280.658 201.259,279.089 208.765 C 277.562 216.066,275.338 226.440,272.875 237.749 C 270.588 248.243,268.841 256.447,267.173 264.506 C 263.949 280.092,258.199 282.797,246.532 274.214 C 241.930 270.829,241.125 270.239,226.592 259.624 C 217.113 252.701,215.512 251.536,210.209 247.707 C 208.921 246.777,207.531 245.770,207.120 245.468 C 206.220 244.810,206.431 244.630,193.969 256.647 C 182.655 267.557,180.821 268.924,177.503 268.924 C 175.800 268.924,175.805 268.985,176.678 258.964 C 176.993 255.349,177.638 246.295,178.112 238.845 C 179.107 223.188,178.623 224.694,184.263 219.718 C 190.845 213.910,194.728 210.425,197.606 207.743 C 199.032 206.414,204.323 201.663,209.363 197.185 C 214.402 192.707,219.691 187.958,221.116 186.631 C 222.540 185.304,225.498 182.635,227.689 180.699 C 229.880 178.763,233.735 175.344,236.255 173.101 C 238.775 170.857,243.526 166.639,246.813 163.728 C 258.192 153.646,261.400 150.518,261.273 149.630 C 260.946 147.341,257.024 148.889,247.104 155.219 C 240.912 159.171,239.542 160.034,234.355 163.249 C 232.324 164.508,226.542 168.137,221.505 171.315 C 216.469 174.492,211.191 177.809,209.777 178.685 C 208.363 179.562,205.630 181.284,203.703 182.512 C 201.776 183.740,197.331 186.508,193.825 188.662 C 187.013 192.847,185.037 194.078,179.209 197.768 C 175.288 200.251,167.680 205.016,163.347 207.703 C 161.922 208.587,159.702 209.996,158.412 210.836 C 154.966 213.079,154.804 213.082,148.465 211.044 C 145.365 210.047,140.453 208.499,137.550 207.604 C 107.653 198.384,106.608 197.995,105.381 195.622 C 103.142 191.293,107.115 187.277,117.331 183.543 C 121.252 182.109,129.456 179.032,133.466 177.490 C 135.329 176.773,138.735 175.472,141.036 174.597 C 145.762 172.801,151.784 170.492,157.371 168.334 C 159.452 167.530,162.948 166.191,165.139 165.358 C 167.331 164.526,170.827 163.184,172.908 162.376 C 174.990 161.568,178.307 160.300,180.279 159.559 C 183.979 158.168,197.862 152.808,204.183 150.330 C 213.359 146.732,223.296 142.950,243.227 135.467 C 245.418 134.644,248.914 133.308,250.996 132.497 C 256.667 130.287,262.738 127.944,266.534 126.499 C 268.396 125.790,271.355 124.665,273.108 123.998 C 274.861 123.331,277.191 122.393,278.287 121.914 C 283.898 119.460,288.250 119.089,291.339 120.801 " stroke="none" fill="#fbfbfc" fill-rule="evenodd"></path><path id="path1" d="M54.183 0.432 C 50.459 0.908,43.825 2.458,43.825 2.852 C 43.825 3.036,43.690 3.159,43.526 3.124 C 43.362 3.089,42.958 3.165,42.629 3.292 C 42.301 3.420,41.046 3.834,39.841 4.213 C 37.725 4.878,31.084 8.178,30.677 8.767 C 30.568 8.926,29.447 9.635,28.187 10.343 C 26.927 11.051,25.895 11.747,25.894 11.891 C 25.892 12.034,25.220 12.599,24.400 13.146 C 22.846 14.182,18.436 18.202,16.978 19.911 C 16.514 20.454,15.553 21.453,14.841 22.131 C 14.128 22.809,13.546 23.532,13.546 23.738 C 13.546 23.943,13.142 24.558,12.649 25.104 C 11.330 26.564,9.562 29.254,9.562 29.802 C 9.562 30.064,9.399 30.279,9.199 30.279 C 8.421 30.279,3.361 41.294,3.272 43.183 C 3.263 43.377,3.070 43.651,2.843 43.791 C 2.616 43.931,1.929 46.372,1.315 49.214 L 0.199 54.382 0.199 199.203 L 0.199 344.024 1.243 348.834 C 1.817 351.480,2.567 354.259,2.909 355.010 C 3.252 355.760,3.825 357.271,4.183 358.367 C 5.451 362.248,9.776 370.068,12.080 372.647 C 12.698 373.338,13.462 374.392,13.778 374.988 C 14.093 375.584,14.708 376.263,15.144 376.496 C 15.580 376.730,15.936 377.150,15.936 377.430 C 15.936 377.710,17.036 378.914,18.381 380.105 C 19.725 381.296,21.396 382.854,22.094 383.566 C 22.792 384.278,23.547 384.861,23.771 384.861 C 23.996 384.861,24.521 385.241,24.938 385.705 C 25.803 386.667,29.697 389.243,30.287 389.243 C 30.501 389.243,30.677 389.401,30.677 389.595 C 30.677 389.788,31.708 390.434,32.968 391.030 C 34.228 391.626,35.349 392.255,35.458 392.427 C 35.568 392.599,37.233 393.295,39.159 393.974 C 41.085 394.652,43.028 395.404,43.477 395.644 C 43.926 395.885,46.294 396.554,48.740 397.131 L 53.187 398.181 197.211 398.319 C 349.815 398.465,345.784 398.510,352.936 396.603 C 356.777 395.579,364.234 392.890,364.542 392.419 C 364.651 392.251,365.772 391.626,367.032 391.030 C 368.292 390.434,369.323 389.788,369.323 389.595 C 369.323 389.401,369.499 389.243,369.713 389.243 C 370.303 389.243,374.197 386.667,375.062 385.705 C 375.479 385.241,376.004 384.861,376.229 384.861 C 376.453 384.861,377.221 384.278,377.935 383.566 C 378.649 382.854,380.321 381.286,381.649 380.082 C 382.977 378.879,384.064 377.675,384.064 377.407 C 384.064 377.139,384.420 376.730,384.856 376.496 C 385.292 376.263,385.907 375.584,386.222 374.988 C 386.538 374.392,387.302 373.338,387.920 372.647 C 390.206 370.088,394.952 361.465,395.998 357.968 C 396.260 357.092,396.579 356.106,396.707 355.777 C 396.835 355.448,396.911 355.045,396.876 354.880 C 396.841 354.716,396.958 354.582,397.136 354.582 C 397.497 354.582,398.047 352.513,399.093 347.211 C 399.763 343.816,399.801 335.939,399.801 199.004 L 399.801 54.382 398.685 49.214 C 398.071 46.372,397.384 43.931,397.157 43.791 C 396.930 43.651,396.737 43.377,396.728 43.183 C 396.650 41.520,392.409 31.956,391.159 30.624 C 390.872 30.318,390.310 29.425,389.910 28.640 C 389.510 27.854,388.572 26.512,387.826 25.658 C 387.080 24.803,386.466 23.937,386.462 23.733 C 386.458 23.530,385.872 22.809,385.159 22.131 C 384.447 21.453,383.488 20.454,383.029 19.911 C 381.654 18.288,377.206 14.211,375.704 13.198 C 374.933 12.679,374.159 12.006,373.984 11.704 C 373.809 11.402,373.491 11.155,373.278 11.155 C 372.912 11.155,369.747 9.227,369.323 8.745 C 368.780 8.129,362.079 4.814,360.159 4.211 C 358.954 3.833,357.699 3.437,357.371 3.330 C 357.042 3.223,356.703 3.163,356.618 3.196 C 356.533 3.228,356.354 3.084,356.220 2.875 C 355.892 2.364,349.608 0.933,345.429 0.417 C 341.320 -0.090,58.156 -0.076,54.183 0.432 M219.721 36.846 C 222.789 37.202,226.464 37.738,227.888 38.038 C 242.085 41.028,240.668 40.658,251.594 44.233 C 255.100 45.380,259.093 46.833,260.468 47.462 C 261.843 48.091,263.071 48.606,263.196 48.606 C 263.890 48.606,277.920 55.550,278.884 56.371 C 279.213 56.650,280.289 57.284,281.275 57.778 C 294.372 64.347,319.223 86.110,327.490 98.249 C 327.819 98.732,329.092 100.444,330.320 102.053 C 332.640 105.095,337.065 111.747,339.290 115.538 C 342.648 121.258,343.924 123.793,349.415 135.657 C 351.618 140.419,355.650 152.632,357.186 159.198 C 360.840 174.818,361.920 183.865,361.938 199.004 C 361.964 220.377,358.788 237.909,351.186 258.367 C 350.372 260.558,349.568 262.530,349.400 262.749 C 349.232 262.968,348.614 264.355,348.028 265.830 C 346.872 268.741,341.972 278.502,340.374 281.076 C 339.830 281.952,338.564 284.014,337.560 285.657 C 335.546 288.955,332.185 294.024,330.904 295.698 C 330.451 296.290,329.452 297.610,328.685 298.631 C 320.341 309.740,311.098 319.015,297.610 329.817 C 295.920 331.169,287.598 336.963,285.657 338.138 C 272.547 346.072,259.696 351.981,248.170 355.374 C 246.068 355.993,243.508 356.785,242.480 357.134 C 240.798 357.705,235.956 358.785,228.088 360.343 C 213.757 363.181,186.243 363.181,171.912 360.343 C 164.044 358.785,159.202 357.705,157.520 357.134 C 156.492 356.785,153.932 355.992,151.830 355.371 C 145.310 353.446,139.271 351.083,130.558 347.046 C 127.621 345.685,117.456 340.154,115.047 338.605 C 112.392 336.899,103.789 330.909,102.230 329.681 C 85.231 316.293,72.755 302.488,62.445 285.657 C 61.438 284.014,60.170 281.952,59.626 281.076 C 58.028 278.502,53.128 268.741,51.972 265.830 C 51.386 264.355,50.768 262.968,50.600 262.749 C 50.432 262.530,49.628 260.558,48.814 258.367 C 41.212 237.909,38.036 220.377,38.062 199.004 C 38.080 183.931,39.163 174.812,42.780 159.285 C 44.289 152.812,48.399 140.372,50.588 135.657 C 50.994 134.781,52.272 132.002,53.426 129.482 C 67.132 99.558,89.726 74.963,120.120 56.885 C 123.726 54.739,136.087 48.606,136.804 48.606 C 136.929 48.606,138.157 48.091,139.532 47.462 C 141.740 46.452,150.278 43.525,157.171 41.415 C 158.486 41.013,161.803 40.211,164.542 39.634 C 167.281 39.056,170.687 38.337,172.112 38.036 C 174.416 37.549,183.208 36.520,188.645 36.100 C 193.467 35.729,214.420 36.231,219.721 36.846 M280.677 121.691 C 278.048 122.637,274.283 124.040,272.311 124.807 C 270.339 125.575,266.753 126.957,264.343 127.879 C 261.932 128.801,258.347 130.184,256.375 130.952 C 251.634 132.798,245.705 135.045,232.669 139.936 C 225.108 142.772,220.573 144.493,216.733 145.984 C 214.651 146.792,211.514 147.988,209.761 148.642 C 208.008 149.295,206.028 150.084,205.361 150.393 C 204.694 150.702,202.632 151.528,200.779 152.227 C 198.926 152.925,195.797 154.117,193.825 154.875 C 191.853 155.633,188.446 156.935,186.255 157.769 C 184.064 158.603,180.568 159.947,178.486 160.757 C 173.318 162.767,166.978 165.176,163.147 166.585 C 161.394 167.229,159.409 168.013,158.736 168.326 C 158.062 168.639,156.090 169.423,154.353 170.068 C 150.540 171.484,144.119 173.925,139.243 175.812 C 132.912 178.261,126.965 180.500,124.192 181.478 C 110.408 186.339,105.179 189.583,105.179 193.273 C 105.179 197.084,107.780 198.167,140.837 208.115 C 142.590 208.643,146.418 209.817,149.343 210.724 L 154.663 212.374 157.112 210.974 C 158.459 210.203,160.774 208.809,162.255 207.874 C 163.736 206.940,166.784 205.029,169.028 203.629 C 171.272 202.228,174.122 200.435,175.361 199.644 C 184.194 194.011,189.817 190.486,197.012 186.068 C 205.151 181.072,210.067 178.015,213.147 176.037 C 214.572 175.123,216.365 173.980,217.131 173.498 C 217.898 173.017,219.781 171.822,221.315 170.843 C 222.849 169.864,225.627 168.114,227.490 166.954 C 229.353 165.795,231.504 164.448,232.271 163.961 C 233.038 163.475,234.831 162.358,236.255 161.480 C 237.679 160.602,241.624 158.117,245.020 155.957 C 257.649 147.928,261.753 146.330,261.753 149.443 C 261.753 150.917,261.018 151.691,252.089 159.621 C 247.215 163.949,242.600 168.058,241.833 168.752 C 241.066 169.446,239.174 171.158,237.629 172.556 C 236.084 173.955,232.867 176.803,230.481 178.884 C 228.095 180.966,225.774 183.041,225.322 183.496 C 224.871 183.950,221.992 186.550,218.925 189.272 C 213.128 194.419,191.162 214.154,185.259 219.520 C 183.396 221.214,181.369 223.027,180.753 223.550 L 179.634 224.502 178.882 235.484 C 178.468 241.524,177.953 248.336,177.736 250.623 C 177.519 252.910,177.235 256.753,177.105 259.163 C 176.975 261.574,176.761 264.686,176.630 266.080 L 176.392 268.613 178.136 268.323 C 181.537 267.758,181.793 267.561,192.829 256.998 C 197.102 252.908,201.889 248.362,203.468 246.895 L 206.338 244.227 209.696 246.715 C 211.543 248.084,214.898 250.548,217.151 252.191 C 219.405 253.835,222.353 255.986,223.702 256.972 C 225.052 257.958,227.280 259.572,228.655 260.558 C 232.299 263.173,238.232 267.499,239.841 268.715 C 252.321 278.150,256.026 279.798,260.092 277.723 C 264.084 275.687,264.707 274.030,268.716 254.781 C 269.447 251.275,270.793 245.000,271.709 240.837 C 273.990 230.466,275.856 221.746,277.463 213.944 C 278.208 210.329,279.097 206.205,279.438 204.781 C 279.780 203.357,280.505 199.950,281.049 197.211 C 281.593 194.472,282.766 188.825,283.655 184.661 C 284.545 180.498,285.903 174.061,286.674 170.358 C 287.445 166.654,288.163 163.482,288.271 163.308 C 288.507 162.927,290.792 152.152,292.627 142.772 C 293.362 139.016,294.155 135.251,294.390 134.405 C 295.926 128.873,294.282 123.013,290.637 121.025 C 287.920 119.543,286.354 119.648,280.677 121.691 " stroke="none" fill="#04acec" fill-rule="evenodd"></path><path id="path2" d="M192.131 36.131 C 192.515 36.231,193.142 36.231,193.526 36.131 C 193.909 36.031,193.596 35.949,192.829 35.949 C 192.062 35.949,191.748 36.031,192.131 36.131 M206.474 36.131 C 206.858 36.231,207.485 36.231,207.869 36.131 C 208.252 36.031,207.938 35.949,207.171 35.949 C 206.404 35.949,206.091 36.031,206.474 36.131 M87.638 81.574 L 85.060 84.263 87.749 81.685 C 89.228 80.267,90.438 79.057,90.438 78.996 C 90.438 78.702,90.033 79.076,87.638 81.574 M313.937 83.367 C 317.816 87.345,318.327 87.830,318.327 87.543 C 318.327 87.484,316.399 85.557,314.044 83.260 L 309.761 79.084 313.937 83.367 M83.049 86.155 L 81.474 87.849 83.167 86.274 C 84.099 85.408,84.861 84.646,84.861 84.580 C 84.861 84.279,84.514 84.581,83.049 86.155 M234.039 175.398 L 232.869 176.693 234.163 175.523 C 234.875 174.879,235.458 174.297,235.458 174.228 C 235.458 173.920,235.129 174.191,234.039 175.398 M227.664 180.976 L 226.494 182.271 227.789 181.101 C 228.501 180.457,229.084 179.875,229.084 179.806 C 229.084 179.498,228.755 179.769,227.664 180.976 M204.158 202.092 L 202.988 203.386 204.283 202.216 C 204.995 201.573,205.578 200.990,205.578 200.921 C 205.578 200.614,205.249 200.885,204.158 202.092 M191.416 213.645 L 189.841 215.339 191.534 213.764 C 193.109 212.299,193.410 211.952,193.109 211.952 C 193.044 211.952,192.282 212.714,191.416 213.645 M178.977 229.482 C 178.977 230.249,179.059 230.563,179.159 230.179 C 179.259 229.796,179.259 229.168,179.159 228.785 C 179.059 228.401,178.977 228.715,178.977 229.482 M178.587 234.462 C 178.591 235.339,178.673 235.650,178.768 235.155 C 178.863 234.659,178.860 233.942,178.760 233.561 C 178.660 233.180,178.582 233.586,178.587 234.462 M261.927 276.594 L 260.757 277.888 262.052 276.718 C 262.764 276.075,263.347 275.492,263.347 275.423 C 263.347 275.116,263.018 275.387,261.927 276.594 M82.470 311.753 C 83.213 312.520,83.911 313.147,84.021 313.147 C 84.130 313.147,83.612 312.520,82.869 311.753 C 82.125 310.986,81.427 310.359,81.318 310.359 C 81.208 310.359,81.727 310.986,82.470 311.753 M317.110 311.853 L 315.737 313.347 317.231 311.974 C 318.622 310.696,318.908 310.359,318.604 310.359 C 318.537 310.359,317.865 311.031,317.110 311.853 M89.641 318.924 C 90.385 319.691,91.083 320.319,91.192 320.319 C 91.302 320.319,90.783 319.691,90.040 318.924 C 89.297 318.157,88.599 317.530,88.489 317.530 C 88.380 317.530,88.898 318.157,89.641 318.924 M309.939 319.024 L 308.566 320.518 310.060 319.145 C 311.450 317.867,311.737 317.530,311.433 317.530 C 311.366 317.530,310.694 318.202,309.939 319.024 " stroke="none" fill="#5eccf4" fill-rule="evenodd"></path><path id="path3" d="M196.912 36.153 C 198.611 36.227,201.389 36.227,203.088 36.153 C 204.786 36.078,203.396 36.017,200.000 36.017 C 196.604 36.017,195.214 36.078,196.912 36.153 M187.351 36.530 C 187.734 36.630,188.362 36.630,188.745 36.530 C 189.128 36.429,188.815 36.347,188.048 36.347 C 187.281 36.347,186.967 36.429,187.351 36.530 M211.255 36.530 C 211.638 36.630,212.266 36.630,212.649 36.530 C 213.033 36.429,212.719 36.347,211.952 36.347 C 211.185 36.347,210.872 36.429,211.255 36.530 M183.167 36.935 C 183.660 37.030,184.467 37.030,184.960 36.935 C 185.453 36.840,185.050 36.762,184.064 36.762 C 183.078 36.762,182.674 36.840,183.167 36.935 M215.040 36.935 C 215.533 37.030,216.340 37.030,216.833 36.935 C 217.326 36.840,216.922 36.762,215.936 36.762 C 214.950 36.762,214.547 36.840,215.040 36.935 M179.985 37.334 C 180.480 37.429,181.197 37.425,181.578 37.326 C 181.959 37.226,181.554 37.148,180.677 37.152 C 179.801 37.157,179.489 37.238,179.985 37.334 M218.630 37.334 C 219.126 37.429,219.843 37.425,220.224 37.326 C 220.605 37.226,220.199 37.148,219.323 37.152 C 218.446 37.157,218.135 37.238,218.630 37.334 M129.482 52.191 C 128.715 52.611,128.231 52.962,128.406 52.971 C 128.828 52.993,131.076 51.825,131.076 51.583 C 131.076 51.323,131.052 51.332,129.482 52.191 M268.924 51.590 C 268.924 51.862,271.364 53.072,271.546 52.890 C 271.632 52.803,271.078 52.434,270.314 52.070 C 269.550 51.705,268.924 51.489,268.924 51.590 M109.363 63.979 L 108.167 65.006 109.462 64.149 C 110.174 63.678,110.757 63.215,110.757 63.120 C 110.757 62.822,110.588 62.926,109.363 63.979 M289.243 63.093 C 289.243 63.203,289.781 63.675,290.438 64.143 C 291.096 64.612,291.633 64.905,291.633 64.795 C 291.633 64.686,291.096 64.213,290.438 63.745 C 289.781 63.277,289.243 62.984,289.243 63.093 M105.164 66.961 L 103.785 68.185 105.279 67.113 C 106.599 66.166,107.029 65.737,106.658 65.737 C 106.595 65.737,105.923 66.288,105.164 66.961 M293.227 65.862 C 293.227 65.960,293.885 66.543,294.690 67.156 C 295.494 67.770,296.027 68.069,295.873 67.820 C 295.558 67.310,293.227 65.585,293.227 65.862 M90.619 78.984 L 89.044 80.677 90.737 79.102 C 91.668 78.236,92.430 77.474,92.430 77.409 C 92.430 77.108,92.083 77.409,90.619 78.984 M308.964 78.884 C 309.820 79.761,310.610 80.478,310.719 80.478 C 310.829 80.478,310.218 79.761,309.363 78.884 C 308.507 78.008,307.717 77.291,307.607 77.291 C 307.498 77.291,308.108 78.008,308.964 78.884 M318.127 88.048 C 319.207 89.143,320.179 90.040,320.289 90.040 C 320.398 90.040,319.605 89.143,318.526 88.048 C 317.447 86.952,316.474 86.056,316.365 86.056 C 316.255 86.056,317.048 86.952,318.127 88.048 M81.275 88.247 C 80.307 89.233,79.605 90.040,79.715 90.040 C 79.824 90.040,80.706 89.233,81.673 88.247 C 82.641 87.261,83.343 86.454,83.234 86.454 C 83.124 86.454,82.243 87.261,81.275 88.247 M286.359 119.804 C 286.855 119.899,287.572 119.895,287.953 119.796 C 288.334 119.696,287.928 119.618,287.052 119.622 C 286.175 119.627,285.864 119.708,286.359 119.804 M240.438 136.468 C 239.442 136.948,239.409 137.003,240.239 136.800 C 241.368 136.525,242.637 135.878,242.032 135.887 C 241.813 135.890,241.096 136.152,240.438 136.468 M260.122 148.555 C 260.650 148.703,261.220 149.178,261.389 149.611 C 261.605 150.162,261.705 150.213,261.725 149.781 C 261.764 148.917,260.948 148.200,259.980 148.247 C 259.271 148.281,259.290 148.322,260.122 148.555 M259.543 152.291 L 257.968 153.984 259.661 152.409 C 261.236 150.945,261.538 150.598,261.236 150.598 C 261.171 150.598,260.409 151.360,259.543 152.291 M255.378 155.976 C 254.411 156.962,253.709 157.769,253.818 157.769 C 253.928 157.769,254.809 156.962,255.777 155.976 C 256.745 154.990,257.447 154.183,257.337 154.183 C 257.228 154.183,256.346 154.990,255.378 155.976 M250.772 160.259 L 249.602 161.554 250.896 160.384 C 251.609 159.740,252.191 159.157,252.191 159.089 C 252.191 158.781,251.862 159.052,250.772 160.259 M246.991 163.645 L 245.618 165.139 247.112 163.766 C 248.502 162.489,248.789 162.151,248.485 162.151 C 248.418 162.151,247.746 162.824,246.991 163.645 M243.405 166.833 L 242.032 168.327 243.526 166.954 C 244.917 165.676,245.203 165.339,244.899 165.339 C 244.832 165.339,244.160 166.011,243.405 166.833 M236.834 172.610 L 235.259 174.303 236.952 172.728 C 238.527 171.263,238.828 170.916,238.527 170.916 C 238.462 170.916,237.700 171.678,236.834 172.610 M225.875 182.371 L 224.502 183.865 225.996 182.492 C 227.387 181.214,227.673 180.876,227.369 180.876 C 227.302 180.876,226.630 181.549,225.875 182.371 M201.295 183.711 C 199.937 184.581,199.497 185.165,200.697 184.505 C 201.611 184.003,203.043 182.896,202.789 182.888 C 202.679 182.885,202.007 183.255,201.295 183.711 M222.093 185.757 L 220.518 187.450 222.211 185.875 C 223.786 184.411,224.087 184.064,223.786 184.064 C 223.721 184.064,222.959 184.826,222.093 185.757 M217.306 190.139 L 216.135 191.434 217.430 190.264 C 218.142 189.621,218.725 189.038,218.725 188.969 C 218.725 188.661,218.396 188.932,217.306 190.139 M38.375 192.829 C 38.375 194.253,38.447 194.836,38.535 194.124 C 38.624 193.411,38.624 192.246,38.535 191.534 C 38.447 190.822,38.375 191.404,38.375 192.829 M361.482 192.829 C 361.482 194.253,361.554 194.836,361.643 194.124 C 361.731 193.411,361.731 192.246,361.643 191.534 C 361.554 190.822,361.482 191.404,361.482 192.829 M213.923 193.127 L 212.550 194.622 214.044 193.249 C 215.434 191.971,215.721 191.633,215.417 191.633 C 215.350 191.633,214.678 192.306,213.923 193.127 M210.134 196.514 L 208.964 197.809 210.259 196.639 C 210.971 195.995,211.554 195.412,211.554 195.344 C 211.554 195.036,211.225 195.307,210.134 196.514 M176.992 198.851 C 175.634 199.720,175.195 200.304,176.394 199.645 C 177.309 199.142,178.741 198.035,178.486 198.027 C 178.376 198.024,177.704 198.395,176.992 198.851 M202.369 203.486 L 200.996 204.980 202.490 203.607 C 203.312 202.852,203.984 202.180,203.984 202.113 C 203.984 201.809,203.647 202.095,202.369 203.486 M361.482 205.578 C 361.482 207.002,361.554 207.585,361.643 206.873 C 361.731 206.160,361.731 204.995,361.643 204.283 C 361.554 203.571,361.482 204.153,361.482 205.578 M38.370 205.777 C 38.373 207.092,38.447 207.581,38.536 206.865 C 38.624 206.149,38.623 205.074,38.532 204.475 C 38.441 203.876,38.368 204.462,38.370 205.777 M128.088 204.781 C 128.526 204.969,129.153 205.123,129.482 205.123 C 129.859 205.123,129.785 204.997,129.283 204.781 C 128.845 204.593,128.217 204.438,127.888 204.438 C 127.512 204.438,127.585 204.565,128.088 204.781 M198.587 206.873 L 197.012 208.566 198.705 206.991 C 200.280 205.526,200.581 205.179,200.280 205.179 C 200.215 205.179,199.453 205.941,198.587 206.873 M138.446 207.968 C 138.884 208.156,139.512 208.311,139.841 208.311 C 140.217 208.311,140.144 208.184,139.641 207.968 C 139.203 207.780,138.576 207.626,138.247 207.626 C 137.870 207.626,137.944 207.752,138.446 207.968 M186.433 217.829 L 185.060 219.323 186.554 217.950 C 187.944 216.672,188.231 216.335,187.927 216.335 C 187.860 216.335,187.188 217.007,186.433 217.829 M182.847 221.016 L 181.474 222.510 182.968 221.137 C 184.359 219.859,184.645 219.522,184.341 219.522 C 184.275 219.522,183.602 220.194,182.847 221.016 M178.993 226.693 C 178.993 227.679,179.071 228.083,179.166 227.590 C 179.261 227.097,179.261 226.290,179.166 225.797 C 179.071 225.304,178.993 225.707,178.993 226.693 M178.595 231.474 C 178.595 232.460,178.672 232.864,178.767 232.371 C 178.862 231.877,178.862 231.071,178.767 230.578 C 178.672 230.085,178.595 230.488,178.595 231.474 M178.188 237.251 C 178.193 238.127,178.274 238.439,178.369 237.944 C 178.465 237.448,178.461 236.731,178.361 236.350 C 178.262 235.969,178.184 236.375,178.188 237.251 M271.536 242.452 C 271.386 243.252,271.343 243.986,271.440 244.083 C 271.538 244.181,271.740 243.606,271.890 242.807 C 272.040 242.007,272.083 241.273,271.986 241.176 C 271.888 241.078,271.686 241.653,271.536 242.452 M177.782 243.426 C 177.782 244.193,177.864 244.507,177.964 244.124 C 178.064 243.740,178.064 243.113,177.964 242.729 C 177.864 242.346,177.782 242.659,177.782 243.426 M204.361 246.514 L 202.988 248.008 204.482 246.635 C 205.873 245.357,206.159 245.020,205.855 245.020 C 205.788 245.020,205.116 245.692,204.361 246.514 M45.865 249.004 C 45.858 249.333,46.099 250.139,46.400 250.797 C 47.104 252.335,47.115 251.620,46.414 249.801 C 46.119 249.034,45.872 248.675,45.865 249.004 M200.377 250.100 L 199.004 251.594 200.498 250.221 C 201.889 248.943,202.175 248.606,201.871 248.606 C 201.804 248.606,201.132 249.278,200.377 250.100 M353.466 250.080 C 353.217 250.890,353.080 251.619,353.160 251.700 C 353.241 251.780,353.522 251.195,353.785 250.398 C 354.048 249.602,354.185 248.873,354.091 248.778 C 353.996 248.684,353.715 249.269,353.466 250.080 M196.002 254.482 L 193.825 256.773 196.116 254.595 C 198.244 252.572,198.589 252.191,198.293 252.191 C 198.231 252.191,197.200 253.222,196.002 254.482 M176.985 255.378 C 176.985 256.145,177.067 256.459,177.167 256.076 C 177.267 255.692,177.267 255.065,177.167 254.681 C 177.067 254.298,176.985 254.612,176.985 255.378 M188.838 261.255 L 184.661 265.538 188.944 261.362 C 192.922 257.483,193.408 256.972,193.120 256.972 C 193.062 256.972,191.134 258.899,188.838 261.255 M176.608 260.757 C 176.611 261.853,176.688 262.254,176.780 261.648 C 176.871 261.042,176.869 260.146,176.774 259.656 C 176.680 259.166,176.605 259.661,176.608 260.757 M176.219 265.936 C 176.221 267.251,176.296 267.741,176.384 267.025 C 176.473 266.309,176.471 265.233,176.380 264.634 C 176.289 264.036,176.217 264.622,176.219 265.936 M265.588 270.169 C 265.448 270.869,265.407 271.516,265.497 271.606 C 265.587 271.696,265.785 271.207,265.936 270.518 C 266.088 269.829,266.128 269.183,266.027 269.081 C 265.925 268.980,265.728 269.469,265.588 270.169 M57.968 277.689 C 58.308 278.347,58.676 278.884,58.785 278.884 C 58.895 278.884,58.706 278.347,58.367 277.689 C 58.027 277.032,57.659 276.494,57.549 276.494 C 57.440 276.494,57.628 277.032,57.968 277.689 M341.633 277.689 C 341.294 278.347,341.105 278.884,341.215 278.884 C 341.324 278.884,341.692 278.347,342.032 277.689 C 342.372 277.032,342.560 276.494,342.451 276.494 C 342.341 276.494,341.973 277.032,341.633 277.689 M67.331 292.829 C 67.799 293.486,68.271 294.024,68.381 294.024 C 68.491 294.024,68.197 293.486,67.729 292.829 C 67.261 292.171,66.788 291.633,66.679 291.633 C 66.569 291.633,66.863 292.171,67.331 292.829 M332.271 292.829 C 331.803 293.486,331.509 294.024,331.619 294.024 C 331.729 294.024,332.201 293.486,332.669 292.829 C 333.137 292.171,333.431 291.633,333.321 291.633 C 333.212 291.633,332.739 292.171,332.271 292.829 M80.677 309.562 C 81.533 310.438,82.323 311.155,82.433 311.155 C 82.542 311.155,81.932 310.438,81.076 309.562 C 80.220 308.685,79.430 307.968,79.320 307.968 C 79.211 307.968,79.821 308.685,80.677 309.562 M318.906 309.661 L 317.331 311.355 319.024 309.780 C 320.599 308.315,320.900 307.968,320.599 307.968 C 320.534 307.968,319.772 308.730,318.906 309.661 M91.434 320.319 C 92.290 321.195,93.080 321.912,93.190 321.912 C 93.299 321.912,92.689 321.195,91.833 320.319 C 90.977 319.442,90.187 318.725,90.077 318.725 C 89.968 318.725,90.578 319.442,91.434 320.319 M308.149 320.418 L 306.574 322.112 308.267 320.537 C 309.842 319.072,310.143 318.725,309.842 318.725 C 309.777 318.725,309.015 319.487,308.149 320.418 M152.390 355.378 C 152.829 355.567,153.456 355.721,153.785 355.721 C 154.162 355.721,154.088 355.594,153.586 355.378 C 153.147 355.190,152.520 355.036,152.191 355.036 C 151.815 355.036,151.888 355.163,152.390 355.378 M246.414 355.378 C 245.912 355.594,245.838 355.721,246.215 355.721 C 246.544 355.721,247.171 355.567,247.610 355.378 C 248.112 355.163,248.185 355.036,247.809 355.036 C 247.480 355.036,246.853 355.190,246.414 355.378 M179.382 361.231 C 179.766 361.331,180.393 361.331,180.777 361.231 C 181.160 361.131,180.847 361.049,180.080 361.049 C 179.313 361.049,178.999 361.131,179.382 361.231 M219.223 361.231 C 219.607 361.331,220.234 361.331,220.618 361.231 C 221.001 361.131,220.687 361.049,219.920 361.049 C 219.153 361.049,218.840 361.131,219.223 361.231 M182.774 361.636 C 183.269 361.732,183.986 361.728,184.367 361.628 C 184.748 361.529,184.343 361.451,183.466 361.455 C 182.590 361.459,182.278 361.541,182.774 361.636 M215.841 361.636 C 216.337 361.732,217.054 361.728,217.435 361.628 C 217.816 361.529,217.410 361.451,216.534 361.455 C 215.657 361.459,215.346 361.541,215.841 361.636 M186.554 362.028 C 186.937 362.128,187.565 362.128,187.948 362.028 C 188.332 361.927,188.018 361.845,187.251 361.845 C 186.484 361.845,186.170 361.927,186.554 362.028 M212.052 362.028 C 212.435 362.128,213.063 362.128,213.446 362.028 C 213.830 361.927,213.516 361.845,212.749 361.845 C 211.982 361.845,211.668 361.927,212.052 362.028 M193.915 362.439 C 194.623 362.527,195.878 362.528,196.704 362.442 C 197.531 362.356,196.952 362.284,195.418 362.282 C 193.884 362.280,193.208 362.351,193.915 362.439 M203.079 362.439 C 203.786 362.527,205.041 362.528,205.868 362.442 C 206.694 362.356,206.116 362.284,204.582 362.282 C 203.048 362.280,202.371 362.351,203.079 362.439 " stroke="none" fill="#9de0fb" fill-rule="evenodd"></path><path id="path4" d="M91.409 77.789 L 90.239 79.084 91.534 77.914 C 92.741 76.823,93.012 76.494,92.704 76.494 C 92.635 76.494,92.053 77.077,91.409 77.789 M308.367 77.888 C 309.110 78.655,309.808 79.283,309.917 79.283 C 310.027 79.283,309.508 78.655,308.765 77.888 C 308.022 77.122,307.324 76.494,307.214 76.494 C 307.105 76.494,307.623 77.122,308.367 77.888 M258.740 153.486 L 257.570 154.781 258.865 153.611 C 259.577 152.967,260.159 152.384,260.159 152.316 C 260.159 152.008,259.831 152.279,258.740 153.486 M254.959 156.873 L 253.586 158.367 255.080 156.994 C 256.470 155.716,256.757 155.378,256.453 155.378 C 256.386 155.378,255.714 156.051,254.959 156.873 M251.373 160.060 L 250.000 161.554 251.494 160.181 C 252.885 158.903,253.171 158.566,252.867 158.566 C 252.800 158.566,252.128 159.238,251.373 160.060 M236.435 173.406 L 234.861 175.100 236.554 173.525 C 238.128 172.060,238.430 171.713,238.129 171.713 C 238.064 171.713,237.302 172.475,236.435 173.406 M38.361 187.052 C 38.364 188.147,38.441 188.548,38.533 187.943 C 38.624 187.337,38.622 186.441,38.527 185.951 C 38.433 185.461,38.358 185.956,38.361 187.052 M221.688 186.554 L 220.518 187.849 221.813 186.678 C 222.525 186.035,223.108 185.452,223.108 185.384 C 223.108 185.076,222.779 185.347,221.688 186.554 M361.469 187.052 C 361.472 188.147,361.549 188.548,361.640 187.943 C 361.732 187.337,361.730 186.441,361.635 185.951 C 361.540 185.461,361.466 185.956,361.469 187.052 M218.102 189.741 L 216.932 191.036 218.227 189.866 C 218.939 189.222,219.522 188.639,219.522 188.571 C 219.522 188.263,219.193 188.534,218.102 189.741 M37.998 194.622 C 37.999 197.032,38.064 197.967,38.143 196.699 C 38.223 195.431,38.222 193.459,38.142 192.316 C 38.062 191.174,37.997 192.211,37.998 194.622 M361.923 199.203 C 361.923 204.133,361.981 206.150,362.050 203.685 C 362.120 201.220,362.120 197.186,362.050 194.721 C 361.981 192.256,361.923 194.273,361.923 199.203 M37.998 203.785 C 37.999 206.195,38.064 207.130,38.143 205.862 C 38.223 204.594,38.222 202.622,38.142 201.479 C 38.062 200.337,37.997 201.375,37.998 203.785 M198.182 207.669 L 197.012 208.964 198.307 207.794 C 199.514 206.703,199.785 206.375,199.477 206.375 C 199.408 206.375,198.826 206.957,198.182 207.669 M194.401 211.056 L 193.028 212.550 194.522 211.177 C 195.913 209.899,196.199 209.562,195.895 209.562 C 195.828 209.562,195.156 210.234,194.401 211.056 M361.469 211.355 C 361.472 212.450,361.549 212.851,361.640 212.246 C 361.732 211.640,361.730 210.744,361.635 210.253 C 361.540 209.763,361.466 210.259,361.469 211.355 M38.356 211.554 C 38.356 212.540,38.433 212.943,38.528 212.450 C 38.623 211.957,38.623 211.150,38.528 210.657 C 38.433 210.164,38.356 210.568,38.356 211.554 M182.246 222.012 L 181.076 223.307 182.371 222.137 C 183.577 221.046,183.848 220.717,183.541 220.717 C 183.472 220.717,182.889 221.300,182.246 222.012 M178.587 237.251 C 178.591 238.127,178.673 238.439,178.768 237.944 C 178.863 237.448,178.860 236.731,178.760 236.350 C 178.660 235.969,178.582 236.375,178.587 237.251 M178.202 242.430 C 178.205 243.526,178.282 243.927,178.374 243.321 C 178.465 242.716,178.463 241.819,178.368 241.329 C 178.274 240.839,178.199 241.335,178.202 242.430 M177.790 247.211 C 177.794 248.088,177.876 248.399,177.971 247.904 C 178.066 247.408,178.063 246.691,177.963 246.310 C 177.863 245.929,177.785 246.335,177.790 247.211 M199.203 250.797 C 198.235 251.783,197.533 252.590,197.643 252.590 C 197.752 252.590,198.634 251.783,199.602 250.797 C 200.569 249.811,201.271 249.004,201.162 249.004 C 201.052 249.004,200.171 249.811,199.203 250.797 M190.612 259.064 L 189.442 260.359 190.737 259.188 C 191.944 258.098,192.215 257.769,191.907 257.769 C 191.839 257.769,191.256 258.352,190.612 259.064 M187.251 262.351 C 186.283 263.337,185.581 264.143,185.691 264.143 C 185.800 264.143,186.682 263.337,187.649 262.351 C 188.617 261.365,189.319 260.558,189.210 260.558 C 189.100 260.558,188.219 261.365,187.251 262.351 " stroke="none" fill="#39c4f4" fill-rule="evenodd"></path></g></svg>