<svg id="svg" version="1.1" xmlns="http://www.w3.org/2000/svg" xmlns:xlink="http://www.w3.org/1999/xlink" width="400" height="398.1630309988519" viewBox="0, 0, 400,398.1630309988519"><g id="svgg"><path id="path0" d="M190.637 41.052 C 125.717 44.327,67.784 92.457,53.167 155.262 C 42.175 202.492,51.523 246.784,81.107 287.649 C 84.765 292.702,84.873 294.782,82.075 306.389 C 78.262 322.210,77.985 323.507,73.318 347.413 C 71.010 359.233,71.087 359.287,84.064 354.946 C 91.749 352.375,96.773 350.549,111.155 345.101 C 138.203 334.856,136.539 335.342,144.622 335.333 C 151.414 335.325,155.382 335.839,165.295 338.012 C 168.715 338.762,174.037 339.925,177.120 340.597 C 228.104 351.703,288.506 327.441,319.845 283.267 C 369.343 213.497,359.782 131.260,295.615 74.866 C 269.897 52.263,229.073 39.114,190.637 41.052 M211.355 61.365 C 316.919 71.201,367.728 191.571,301.378 274.637 C 276.327 305.999,240.296 323.259,199.801 323.295 C 184.573 323.309,180.499 322.723,167.928 318.708 C 147.413 312.156,141.990 311.886,128.287 316.737 C 122.860 318.658,121.319 319.253,111.554 323.199 C 104.957 325.864,98.545 328.021,98.078 327.733 C 97.887 327.615,98.131 325.495,98.620 323.022 C 99.109 320.549,100.242 314.671,101.138 309.960 C 102.035 305.249,103.613 297.028,104.646 291.691 C 106.431 282.469,106.488 281.968,105.798 281.581 C 104.347 280.770,97.747 274.741,95.272 271.967 C 68.405 241.851,60.958 185.138,78.164 141.692 C 87.706 117.598,104.576 96.624,125.299 83.089 C 127.271 81.801,129.350 80.432,129.920 80.048 C 149.231 67.004,184.655 58.877,211.355 61.365 M150.597 96.388 C 140.800 98.193,130.699 103.004,125.506 108.337 C 106.654 127.700,117.703 189.649,146.544 226.295 C 183.900 273.760,260.027 294.670,278.372 262.505 C 281.948 256.233,283.476 243.989,281.746 235.458 L 281.220 232.869 274.574 231.325 C 270.919 230.476,265.418 229.193,262.351 228.474 C 259.283 227.755,253.904 226.501,250.398 225.688 C 246.892 224.875,241.155 223.536,237.649 222.714 C 234.143 221.892,229.124 220.724,226.494 220.119 C 223.865 219.514,221.488 218.933,221.212 218.828 C 220.899 218.709,220.209 219.732,219.366 221.570 C 218.626 223.183,216.929 226.801,215.596 229.612 L 213.171 234.722 210.271 233.168 C 182.474 218.275,163.656 196.572,156.738 171.426 L 155.815 168.072 159.083 166.539 C 160.880 165.695,164.054 164.257,166.135 163.342 C 168.217 162.428,170.503 161.407,171.215 161.073 L 172.510 160.467 172.508 153.839 C 172.506 147.815,171.658 130.903,171.087 125.498 C 168.638 102.330,167.721 99.855,160.558 97.075 C 158.486 96.271,153.207 95.907,150.597 96.388 " stroke="none" fill="#fbfbfb" fill-rule="evenodd"></path><path id="path1" d="M53.107 0.586 C 48.547 1.294,43.825 2.445,43.825 2.848 C 43.825 3.035,43.690 3.159,43.526 3.124 C 43.362 3.089,42.958 3.165,42.629 3.293 C 42.301 3.421,41.315 3.732,40.438 3.985 C 38.340 4.590,31.705 7.893,30.692 8.837 C 30.254 9.245,29.848 9.557,29.789 9.531 C 29.488 9.400,26.811 11.115,25.546 12.249 C 24.753 12.960,23.954 13.543,23.772 13.544 C 23.589 13.545,22.828 14.128,22.081 14.841 C 21.334 15.553,19.737 17.032,18.532 18.127 C 17.326 19.223,16.339 20.322,16.337 20.570 C 16.336 20.818,15.707 21.500,14.940 22.085 C 14.173 22.670,13.546 23.365,13.546 23.630 C 13.546 23.895,13.054 24.642,12.453 25.290 C 11.302 26.531,10.098 28.411,9.704 29.582 C 9.574 29.965,9.325 30.279,9.149 30.279 C 8.669 30.279,5.470 36.491,4.430 39.442 C 3.928 40.867,3.282 42.480,2.994 43.028 C 2.258 44.428,0.933 50.858,0.408 55.578 C 0.088 58.453,0.002 99.186,0.102 201.992 L 0.239 344.422 1.076 348.406 C 1.537 350.598,2.141 352.928,2.418 353.586 C 2.695 354.243,2.952 354.871,2.989 354.980 C 3.026 355.090,3.163 355.448,3.293 355.777 C 3.422 356.106,3.923 357.540,4.406 358.964 C 4.889 360.388,5.734 362.361,6.284 363.347 C 9.014 368.241,11.710 372.518,12.579 373.334 C 13.111 373.834,13.546 374.475,13.546 374.759 C 13.546 375.043,14.084 375.673,14.741 376.159 C 15.398 376.645,15.936 377.214,15.936 377.424 C 15.936 377.982,20.432 382.452,21.002 382.462 C 21.268 382.466,21.679 382.831,21.915 383.273 C 22.152 383.714,23.099 384.548,24.021 385.125 C 24.943 385.703,25.790 386.315,25.903 386.486 C 26.295 387.080,32.368 390.882,33.909 391.499 C 34.761 391.839,35.458 392.308,35.458 392.540 C 35.458 392.772,35.576 392.844,35.720 392.699 C 35.864 392.555,36.200 392.618,36.466 392.839 C 36.732 393.059,38.273 393.701,39.889 394.266 C 41.506 394.830,43.008 395.439,43.228 395.621 C 43.448 395.802,45.958 396.458,48.806 397.079 L 53.984 398.207 200.000 398.207 L 346.016 398.207 351.194 397.079 C 354.042 396.458,356.552 395.802,356.772 395.621 C 356.992 395.439,358.494 394.830,360.111 394.266 C 361.727 393.701,363.268 393.059,363.534 392.839 C 363.800 392.618,364.136 392.555,364.280 392.699 C 364.424 392.844,364.542 392.772,364.542 392.540 C 364.542 392.308,365.239 391.839,366.091 391.499 C 367.632 390.882,373.705 387.080,374.097 386.486 C 374.210 386.315,375.057 385.703,375.979 385.125 C 376.901 384.548,377.848 383.714,378.085 383.273 C 378.321 382.831,378.732 382.466,378.998 382.462 C 379.568 382.452,384.064 377.982,384.064 377.424 C 384.064 377.214,384.602 376.645,385.259 376.159 C 385.916 375.673,386.455 375.056,386.456 374.789 C 386.457 374.522,386.954 373.765,387.561 373.108 C 389.789 370.693,394.314 362.714,395.581 358.964 C 396.063 357.540,396.694 355.926,396.984 355.378 C 397.804 353.833,398.722 349.663,399.397 344.422 C 399.944 340.173,400.000 323.761,399.899 196.813 L 399.785 53.984 398.684 49.052 C 398.078 46.340,397.375 43.740,397.120 43.276 C 396.866 42.811,396.180 41.078,395.597 39.425 C 395.014 37.772,394.096 35.710,393.558 34.843 C 393.021 33.976,392.344 32.680,392.055 31.963 C 391.766 31.245,391.328 30.528,391.083 30.369 C 390.838 30.210,390.203 29.273,389.672 28.287 C 389.141 27.301,388.200 25.967,387.581 25.323 C 386.961 24.679,386.454 23.926,386.454 23.650 C 386.454 23.374,385.827 22.670,385.060 22.085 C 384.293 21.500,383.664 20.818,383.663 20.570 C 383.661 20.322,382.667 19.223,381.454 18.127 C 380.241 17.032,378.685 15.553,377.997 14.841 C 377.309 14.128,376.540 13.546,376.288 13.546 C 376.036 13.546,375.307 13.013,374.668 12.362 C 374.029 11.710,373.344 11.173,373.145 11.166 C 372.947 11.160,372.185 10.698,371.452 10.139 C 370.719 9.580,370.120 9.229,370.120 9.358 C 370.120 9.487,369.759 9.257,369.319 8.847 C 368.878 8.436,367.578 7.668,366.430 7.139 C 365.282 6.611,364.121 5.969,363.851 5.713 C 363.580 5.457,362.146 4.860,360.663 4.386 C 359.181 3.911,357.699 3.436,357.371 3.330 C 357.042 3.223,356.703 3.163,356.618 3.196 C 356.533 3.228,356.354 3.085,356.220 2.877 C 355.888 2.361,351.607 1.328,346.801 0.603 C 341.320 -0.223,58.426 -0.239,53.107 0.586 M216.135 41.433 C 262.005 47.370,296.126 67.266,322.383 103.386 C 364.697 161.597,360.902 234.826,312.542 293.230 C 306.991 299.934,296.947 309.326,290.438 313.900 C 281.144 320.430,274.261 324.549,266.319 328.335 C 233.336 344.055,199.945 347.802,169.124 339.240 C 161.755 337.193,151.559 335.700,144.821 335.680 L 138.048 335.660 133.267 337.324 C 128.737 338.901,125.006 340.273,116.335 343.555 C 114.253 344.343,110.578 345.734,108.167 346.646 C 97.254 350.776,94.863 351.640,86.056 354.638 C 71.913 359.452,71.112 359.350,72.060 352.860 C 72.583 349.274,75.653 333.061,76.940 327.092 C 77.388 325.010,78.265 320.931,78.887 318.027 C 79.509 315.122,80.205 312.164,80.433 311.453 C 80.844 310.174,83.386 298.745,83.875 295.980 C 84.307 293.542,83.414 291.530,79.447 285.993 C 71.817 275.346,65.634 264.289,59.766 250.797 C 40.764 207.105,45.706 151.743,72.362 109.687 C 97.189 70.517,140.869 44.535,188.446 40.637 C 195.046 40.096,208.880 40.494,216.135 41.433 M190.837 61.602 C 157.900 63.984,129.068 76.701,106.943 98.606 C 99.371 106.102,94.908 111.710,88.310 122.013 C 57.622 169.941,65.857 251.757,104.202 279.909 C 106.948 281.925,107.068 282.212,106.355 285.060 C 106.136 285.936,105.339 289.970,104.584 294.024 C 103.828 298.078,102.856 303.187,102.423 305.378 C 97.379 330.915,97.280 328.237,103.187 326.002 C 104.612 325.463,106.942 324.603,108.367 324.090 C 109.791 323.578,112.928 322.329,115.339 321.315 C 139.382 311.200,144.177 310.875,166.534 317.848 C 174.935 320.468,177.441 321.102,183.313 322.094 C 214.145 327.300,250.959 317.457,278.175 296.729 C 333.651 254.480,347.127 174.167,308.209 117.729 C 292.616 95.117,273.166 79.747,247.718 69.930 C 245.148 68.939,242.892 68.127,242.705 68.127 C 242.517 68.127,240.706 67.595,238.680 66.943 C 226.340 62.977,204.909 60.585,190.837 61.602 M161.802 97.079 C 166.149 99.061,168.014 101.826,169.279 108.167 C 171.001 116.799,173.906 155.449,173.139 159.533 C 172.908 160.766,170.054 162.237,158.068 167.300 C 157.027 167.739,156.175 168.199,156.175 168.320 C 156.175 169.033,159.300 178.080,160.649 181.275 C 169.670 202.630,185.736 219.391,209.663 232.409 L 213.151 234.306 213.572 233.189 C 213.805 232.575,214.682 230.637,215.522 228.884 C 216.363 227.131,217.801 224.107,218.718 222.164 L 220.386 218.631 222.245 218.882 C 223.267 219.020,225.986 219.576,228.287 220.118 C 230.588 220.660,235.159 221.731,238.446 222.498 C 241.733 223.265,247.560 224.625,251.394 225.520 C 264.932 228.681,269.980 229.850,275.637 231.131 C 282.390 232.661,281.855 231.997,282.515 239.660 C 284.824 266.450,269.316 280.304,239.483 278.104 C 218.596 276.563,196.955 268.468,176.892 254.689 C 146.465 233.793,128.592 206.594,118.849 166.359 C 112.899 141.790,115.317 118.787,124.941 108.392 C 133.297 99.367,153.332 93.217,161.802 97.079 " stroke="none" fill="#34cc34" fill-rule="evenodd"></path><path id="path2" d="M195.537 40.536 C 197.355 40.610,200.224 40.609,201.911 40.535 C 203.599 40.460,202.112 40.400,198.606 40.400 C 195.100 40.401,193.719 40.462,195.537 40.536 M186.958 40.923 C 187.563 41.015,188.460 41.012,188.950 40.918 C 189.440 40.823,188.944 40.748,187.849 40.751 C 186.753 40.754,186.352 40.832,186.958 40.923 M208.068 40.923 C 208.670 41.014,209.656 41.014,210.259 40.923 C 210.862 40.832,210.369 40.757,209.163 40.757 C 207.958 40.757,207.465 40.832,208.068 40.923 M212.849 41.310 C 213.232 41.411,213.860 41.411,214.243 41.310 C 214.626 41.210,214.313 41.128,213.546 41.128 C 212.779 41.128,212.465 41.210,212.849 41.310 M198.298 61.244 C 199.005 61.332,200.260 61.333,201.087 61.247 C 201.913 61.161,201.335 61.089,199.801 61.087 C 198.267 61.085,197.591 61.156,198.298 61.244 M190.339 61.636 C 190.832 61.731,191.638 61.731,192.131 61.636 C 192.625 61.541,192.221 61.463,191.235 61.463 C 190.249 61.463,189.846 61.541,190.339 61.636 M207.470 61.636 C 207.963 61.731,208.770 61.731,209.263 61.636 C 209.756 61.541,209.353 61.463,208.367 61.463 C 207.380 61.463,206.977 61.541,207.470 61.636 M298.008 76.619 C 298.008 76.687,298.591 77.270,299.303 77.914 L 300.598 79.084 299.427 77.789 C 298.337 76.582,298.008 76.311,298.008 76.619 M93.017 84.163 L 90.239 87.052 93.127 84.274 C 94.716 82.746,96.016 81.446,96.016 81.385 C 96.016 81.093,95.598 81.481,93.017 84.163 M309.562 88.172 C 309.562 88.241,310.144 88.824,310.857 89.467 L 312.151 90.637 310.981 89.343 C 309.890 88.136,309.562 87.865,309.562 88.172 M111.330 94.124 L 110.159 95.418 111.454 94.248 C 112.661 93.157,112.932 92.829,112.624 92.829 C 112.556 92.829,111.973 93.411,111.330 94.124 M292.231 98.406 C 293.753 99.940,295.088 101.195,295.198 101.195 C 295.307 101.195,294.152 99.940,292.629 98.406 C 291.107 96.873,289.772 95.618,289.663 95.618 C 289.553 95.618,290.709 96.873,292.231 98.406 M116.029 130.677 C 116.029 131.444,116.111 131.758,116.211 131.375 C 116.311 130.991,116.311 130.364,116.211 129.980 C 116.111 129.597,116.029 129.910,116.029 130.677 M115.652 134.861 C 115.655 135.956,115.732 136.357,115.824 135.751 C 115.915 135.146,115.913 134.249,115.818 133.759 C 115.724 133.269,115.649 133.765,115.652 134.861 M172.235 138.845 C 172.237 140.159,172.312 140.649,172.400 139.933 C 172.489 139.217,172.487 138.141,172.396 137.543 C 172.305 136.944,172.233 137.530,172.235 138.845 M115.657 145.020 C 115.657 146.225,115.732 146.718,115.823 146.116 C 115.914 145.513,115.914 144.527,115.823 143.924 C 115.732 143.322,115.657 143.815,115.657 145.020 M172.641 145.618 C 172.642 147.151,172.714 147.730,172.801 146.903 C 172.887 146.077,172.886 144.822,172.798 144.115 C 172.709 143.407,172.639 144.084,172.641 145.618 M116.029 149.801 C 116.029 150.568,116.111 150.881,116.211 150.498 C 116.311 150.115,116.311 149.487,116.211 149.104 C 116.111 148.720,116.029 149.034,116.029 149.801 M173.050 156.375 C 173.049 158.347,173.116 159.204,173.199 158.279 C 173.283 157.354,173.284 155.741,173.202 154.693 C 173.119 153.646,173.051 154.402,173.050 156.375 M70.212 174.104 C 70.212 174.871,70.294 175.184,70.394 174.801 C 70.494 174.417,70.494 173.790,70.394 173.406 C 70.294 173.023,70.212 173.337,70.212 174.104 M329.973 178.884 C 329.973 179.651,330.055 179.965,330.155 179.582 C 330.255 179.198,330.255 178.571,330.155 178.187 C 330.055 177.804,329.973 178.118,329.973 178.884 M69.081 192.629 C 69.082 195.697,69.145 196.900,69.220 195.301 C 69.296 193.703,69.296 191.193,69.219 189.724 C 69.143 188.254,69.081 189.562,69.081 192.629 M351.538 190.837 C 351.538 192.918,351.605 193.770,351.687 192.729 C 351.769 191.688,351.769 189.985,351.687 188.944 C 351.605 187.903,351.538 188.755,351.538 190.837 M48.353 191.833 C 48.354 194.024,48.421 194.869,48.501 193.712 C 48.582 192.554,48.581 190.761,48.499 189.728 C 48.418 188.694,48.352 189.641,48.353 191.833 M329.973 203.984 C 329.973 204.751,330.055 205.065,330.155 204.681 C 330.255 204.298,330.255 203.670,330.155 203.287 C 330.055 202.903,329.973 203.217,329.973 203.984 M329.575 207.171 C 329.575 207.938,329.656 208.252,329.757 207.869 C 329.857 207.485,329.857 206.858,329.757 206.474 C 329.656 206.091,329.575 206.404,329.575 207.171 M69.814 207.968 C 69.814 208.735,69.896 209.049,69.996 208.665 C 70.096 208.282,70.096 207.654,69.996 207.271 C 69.896 206.887,69.814 207.201,69.814 207.968 M70.212 211.155 C 70.212 211.922,70.294 212.236,70.394 211.853 C 70.494 211.469,70.494 210.842,70.394 210.458 C 70.294 210.075,70.212 210.388,70.212 211.155 M282.612 244.821 C 282.610 246.793,282.678 247.650,282.761 246.725 C 282.845 245.801,282.846 244.187,282.763 243.140 C 282.681 242.092,282.613 242.849,282.612 244.821 M334.861 258.964 C 334.521 259.622,334.332 260.159,334.442 260.159 C 334.551 260.159,334.919 259.622,335.259 258.964 C 335.599 258.307,335.787 257.769,335.678 257.769 C 335.568 257.769,335.200 258.307,334.861 258.964 M97.809 274.502 C 99.110 275.817,100.264 276.892,100.373 276.892 C 100.483 276.892,99.508 275.817,98.207 274.502 C 96.906 273.187,95.752 272.112,95.642 272.112 C 95.533 272.112,96.508 273.187,97.809 274.502 M243.736 278.380 C 244.673 278.464,246.107 278.463,246.923 278.377 C 247.739 278.292,246.972 278.223,245.219 278.224 C 243.466 278.226,242.799 278.296,243.736 278.380 M286.628 289.741 L 285.458 291.036 286.753 289.866 C 287.465 289.222,288.048 288.639,288.048 288.571 C 288.048 288.263,287.719 288.534,286.628 289.741 M304.955 301.295 L 303.785 302.590 305.080 301.419 C 305.792 300.776,306.375 300.193,306.375 300.125 C 306.375 299.817,306.046 300.088,304.955 301.295 M142.928 313.041 C 143.860 313.125,145.383 313.125,146.315 313.041 C 147.246 312.957,146.484 312.888,144.622 312.888 C 142.759 312.888,141.997 312.957,142.928 313.041 M214.044 322.585 C 214.427 322.686,215.055 322.686,215.438 322.585 C 215.822 322.485,215.508 322.403,214.741 322.403 C 213.974 322.403,213.660 322.485,214.044 322.585 M205.279 323.382 C 205.662 323.482,206.290 323.482,206.673 323.382 C 207.057 323.282,206.743 323.200,205.976 323.200 C 205.209 323.200,204.895 323.282,205.279 323.382 M207.076 343.708 C 207.572 343.803,208.289 343.800,208.670 343.700 C 209.051 343.600,208.645 343.522,207.769 343.527 C 206.892 343.531,206.581 343.613,207.076 343.708 M71.814 355.179 C 71.818 356.056,71.900 356.367,71.995 355.872 C 72.090 355.376,72.087 354.659,71.987 354.278 C 71.887 353.897,71.809 354.303,71.814 355.179 M72.459 357.470 C 72.822 357.933,73.491 358.146,74.451 358.104 L 75.896 358.040 74.504 357.872 C 73.738 357.779,72.841 357.494,72.512 357.238 C 71.990 356.833,71.983 356.863,72.459 357.470 " stroke="none" fill="#7cdf7c" fill-rule="evenodd"></path><path id="path3" d="M195.319 61.231 C 195.702 61.331,196.330 61.331,196.713 61.231 C 197.097 61.131,196.783 61.049,196.016 61.049 C 195.249 61.049,194.935 61.131,195.319 61.231 M202.888 61.231 C 203.272 61.331,203.899 61.331,204.283 61.231 C 204.666 61.131,204.353 61.049,203.586 61.049 C 202.819 61.049,202.505 61.131,202.888 61.231 M307.171 85.782 C 307.171 85.851,307.754 86.433,308.466 87.077 L 309.761 88.247 308.591 86.952 C 307.500 85.745,307.171 85.474,307.171 85.782 M115.677 139.841 C 115.677 141.703,115.746 142.465,115.830 141.534 C 115.913 140.603,115.913 139.079,115.830 138.147 C 115.746 137.216,115.677 137.978,115.677 139.841 M177.689 208.491 C 177.689 208.560,178.272 209.142,178.984 209.786 L 180.279 210.956 179.109 209.661 C 178.018 208.454,177.689 208.183,177.689 208.491 " stroke="none" fill="#94e494" fill-rule="evenodd"></path><path id="path4" d="M192.131 40.928 C 192.953 41.014,194.298 41.014,195.120 40.928 C 195.941 40.842,195.269 40.771,193.625 40.771 C 191.982 40.771,191.310 40.842,192.131 40.928 M202.092 40.928 C 202.913 41.014,204.258 41.014,205.080 40.928 C 205.901 40.842,205.229 40.771,203.586 40.771 C 201.942 40.771,201.270 40.842,202.092 40.928 M134.661 55.179 C 134.114 55.492,133.845 55.749,134.064 55.749 C 134.283 55.749,134.910 55.492,135.458 55.179 C 136.006 54.866,136.275 54.610,136.056 54.610 C 135.837 54.610,135.209 54.866,134.661 55.179 M191.733 61.242 C 192.336 61.333,193.322 61.333,193.924 61.242 C 194.527 61.150,194.034 61.076,192.829 61.076 C 191.624 61.076,191.130 61.150,191.733 61.242 M205.677 61.242 C 206.280 61.333,207.266 61.333,207.869 61.242 C 208.471 61.150,207.978 61.076,206.773 61.076 C 205.568 61.076,205.075 61.150,205.677 61.242 M186.758 61.636 C 187.253 61.732,187.970 61.728,188.351 61.628 C 188.732 61.529,188.327 61.451,187.450 61.455 C 186.574 61.459,186.262 61.541,186.758 61.636 M211.459 61.636 C 211.954 61.732,212.672 61.728,213.052 61.628 C 213.433 61.529,213.028 61.451,212.151 61.455 C 211.275 61.459,210.963 61.541,211.459 61.636 M296.813 75.822 C 296.813 75.890,297.395 76.473,298.108 77.117 L 299.402 78.287 298.232 76.992 C 297.141 75.785,296.813 75.514,296.813 75.822 M95.618 81.873 C 94.650 82.859,93.948 83.665,94.057 83.665 C 94.167 83.665,95.048 82.859,96.016 81.873 C 96.984 80.886,97.686 80.080,97.576 80.080 C 97.467 80.080,96.585 80.886,95.618 81.873 M304.582 83.267 C 305.883 84.582,307.037 85.657,307.146 85.657 C 307.256 85.657,306.281 84.582,304.980 83.267 C 303.679 81.952,302.525 80.876,302.415 80.876 C 302.306 80.876,303.281 81.952,304.582 83.267 M88.620 88.944 L 87.450 90.239 88.745 89.069 C 89.952 87.978,90.223 87.649,89.915 87.649 C 89.847 87.649,89.264 88.232,88.620 88.944 M309.960 88.969 C 309.960 89.038,310.543 89.621,311.255 90.264 L 312.550 91.434 311.380 90.139 C 310.289 88.932,309.960 88.661,309.960 88.969 M85.433 92.530 L 84.263 93.825 85.558 92.655 C 86.765 91.564,87.036 91.235,86.728 91.235 C 86.659 91.235,86.077 91.818,85.433 92.530 M286.853 92.953 C 286.853 93.022,287.435 93.605,288.147 94.248 L 289.442 95.418 288.272 94.124 C 287.181 92.917,286.853 92.646,286.853 92.953 M292.629 98.406 C 293.485 99.283,294.275 100.000,294.385 100.000 C 294.494 100.000,293.884 99.283,293.028 98.406 C 292.172 97.530,291.382 96.813,291.273 96.813 C 291.163 96.813,291.774 97.530,292.629 98.406 M116.029 133.466 C 116.029 134.233,116.111 134.547,116.211 134.163 C 116.311 133.780,116.311 133.152,116.211 132.769 C 116.111 132.385,116.029 132.699,116.029 133.466 M171.806 136.255 C 171.806 137.022,171.888 137.336,171.988 136.952 C 172.088 136.569,172.088 135.941,171.988 135.558 C 171.888 135.174,171.806 135.488,171.806 136.255 M172.212 143.227 C 172.216 144.104,172.298 144.415,172.393 143.920 C 172.489 143.424,172.485 142.707,172.385 142.326 C 172.286 141.945,172.208 142.351,172.212 143.227 M116.029 146.614 C 116.029 147.380,116.111 147.694,116.211 147.311 C 116.311 146.927,116.311 146.300,116.211 145.916 C 116.111 145.533,116.029 145.847,116.029 146.614 M172.665 155.179 C 172.665 158.028,172.729 159.141,172.806 157.653 C 172.883 156.165,172.882 153.834,172.805 152.473 C 172.727 151.113,172.664 152.331,172.665 155.179 M350.292 174.502 C 350.292 175.269,350.374 175.583,350.474 175.199 C 350.574 174.816,350.574 174.188,350.474 173.805 C 350.374 173.421,350.292 173.735,350.292 174.502 M350.698 178.287 C 350.703 179.163,350.784 179.475,350.879 178.979 C 350.975 178.484,350.971 177.767,350.871 177.386 C 350.772 177.005,350.694 177.410,350.698 178.287 M49.104 178.685 C 49.109 179.562,49.190 179.873,49.286 179.378 C 49.381 178.882,49.377 178.165,49.278 177.784 C 49.178 177.403,49.100 177.809,49.104 178.685 M351.088 182.869 C 351.088 183.635,351.170 183.949,351.271 183.566 C 351.371 183.182,351.371 182.555,351.271 182.171 C 351.170 181.788,351.088 182.102,351.088 182.869 M48.706 183.865 C 48.710 184.741,48.792 185.053,48.887 184.557 C 48.983 184.062,48.979 183.344,48.879 182.963 C 48.780 182.583,48.702 182.988,48.706 183.865 M69.017 185.259 C 69.017 186.026,69.099 186.340,69.199 185.956 C 69.299 185.573,69.299 184.945,69.199 184.562 C 69.099 184.178,69.017 184.492,69.017 185.259 M330.819 191.434 C 330.817 193.406,330.885 194.263,330.968 193.339 C 331.052 192.414,331.053 190.801,330.971 189.753 C 330.888 188.706,330.820 189.462,330.819 191.434 M351.096 198.606 C 351.101 199.482,351.182 199.794,351.278 199.298 C 351.373 198.803,351.369 198.085,351.270 197.705 C 351.170 197.324,351.092 197.729,351.096 198.606 M48.714 200.398 C 48.714 201.384,48.792 201.788,48.887 201.295 C 48.982 200.802,48.982 199.995,48.887 199.502 C 48.792 199.009,48.714 199.412,48.714 200.398 M69.017 200.000 C 69.017 200.767,69.099 201.081,69.199 200.697 C 69.299 200.314,69.299 199.686,69.199 199.303 C 69.099 198.919,69.017 199.233,69.017 200.000 M350.690 203.586 C 350.690 204.353,350.772 204.666,350.872 204.283 C 350.972 203.899,350.972 203.272,350.872 202.888 C 350.772 202.505,350.690 202.819,350.690 203.586 M49.104 205.378 C 49.109 206.255,49.190 206.567,49.286 206.071 C 49.381 205.575,49.377 204.858,49.278 204.477 C 49.178 204.097,49.100 204.502,49.104 205.378 M155.976 237.052 C 157.498 238.586,158.833 239.841,158.943 239.841 C 159.052 239.841,157.897 238.586,156.375 237.052 C 154.852 235.518,153.517 234.263,153.408 234.263 C 153.298 234.263,154.454 235.518,155.976 237.052 M294.211 282.570 L 291.833 285.060 294.323 282.682 C 296.636 280.473,296.995 280.080,296.701 280.080 C 296.639 280.080,295.519 281.200,294.211 282.570 M288.228 288.546 L 286.653 290.239 288.347 288.664 C 289.278 287.798,290.040 287.036,290.040 286.971 C 290.040 286.670,289.693 286.971,288.228 288.546 M307.947 297.908 L 306.574 299.402 308.068 298.029 C 309.458 296.751,309.745 296.414,309.441 296.414 C 309.374 296.414,308.702 297.087,307.947 297.908 M301.768 304.084 L 300.598 305.378 301.892 304.208 C 302.605 303.565,303.187 302.982,303.187 302.914 C 303.187 302.606,302.859 302.877,301.768 304.084 M141.738 335.342 C 142.233 335.437,142.950 335.433,143.331 335.333 C 143.712 335.234,143.307 335.156,142.430 335.160 C 141.554 335.165,141.242 335.246,141.738 335.342 M145.717 335.341 C 146.210 335.436,147.017 335.436,147.510 335.341 C 148.003 335.246,147.600 335.168,146.614 335.168 C 145.627 335.168,145.224 335.246,145.717 335.341 M213.645 342.904 C 214.029 343.004,214.656 343.004,215.040 342.904 C 215.423 342.804,215.110 342.722,214.343 342.722 C 213.576 342.722,213.262 342.804,213.645 342.904 M192.131 343.303 C 192.515 343.403,193.142 343.403,193.526 343.303 C 193.909 343.202,193.596 343.120,192.829 343.120 C 192.062 343.120,191.748 343.202,192.131 343.303 M208.870 343.314 C 209.476 343.405,210.372 343.403,210.862 343.308 C 211.352 343.214,210.857 343.139,209.761 343.142 C 208.665 343.145,208.264 343.222,208.870 343.314 M198.322 343.722 C 199.700 343.800,201.852 343.799,203.103 343.720 C 204.355 343.641,203.227 343.578,200.598 343.578 C 197.968 343.579,196.944 343.644,198.322 343.722 " stroke="none" fill="#9ce49c" fill-rule="evenodd"></path></g></svg>